# xmcd CD database file
#
# Track frame offsets:
#	150
#	18388
#	35908
#	52238
#	72915
#	94583
#	109980
#	133858
#	152488
#	173900
#
# Disc length: 2570 seconds
#
# Revision: 0
# Processed by: cddbd v1.5.1PL0 Copyright (c) Steve Scherf et al.
# Submitted via: CDex 1.51
#
DISCID=8c0a080a
DTITLE=Travis Haddix - Winners Never Quit
DYEAR=1991
DGENRE=Blues
TTITLE0=Homeslice
TTITLE1=Bag Lady
TTITLE2=She's Not The Kind Of Girl
TTITLE3=Better Than Nothing
TTITLE4=Winners Never Quit
TTITLE5=Something In The Milk Ain't Clean
TTITLE6=Beggin Business
TTITLE7=Abused
TTITLE8=Someone To Love
TTITLE9=I'm Mean
EXTD=YEAR: 1991
EXTT0=
EXTT1=
EXTT2=
EXTT3=
EXTT4=
EXTT5=
EXTT6=
EXTT7=
EXTT8=
EXTT9=
PLAYORDER=
